<svg id="Capa_1" data-name="Capa 1" xmlns="http://www.w3.org/2000/svg" viewBox="0 0 957.21 839.89"><defs><style>.cls-1{fill:#fff;}.cls-2{fill:#ecedf2;}.cls-3{fill:#454c80;}</style></defs><path class="cls-1" d="M477.7,437.68A1163.71,1163.71,0,0,0,309.3,449.8V121.14a1566.1,1566.1,0,0,1,335-.19V449.54A1164,1164,0,0,0,477.7,437.68Z"/><path class="cls-1" d="M905.65,538.91,733.31,774.51a792.08,792.08,0,0,0-134.93-30.85c-125.92-17.32-256.21-8.09-377.32,31.19L48.78,539.33C315.11,425,639.21,424.85,905.65,538.91Z"/><path class="cls-1" d="M1417,12.35,1201.54,306.93,830.38,814.33q-4.51-2.3-9.09-4.51l374.23-511.6L1409,6.45Z"/><path class="cls-2" d="M1195.52,298.22,821.29,809.82q-4.51-2.3-9.09-4.51L1182,299.78,1210.33,261l8.92,4.75,10.1,5.95-23.66,32.5Z"/><path class="cls-3" d="M263.69,633.24a12.35,12.35,0,0,1-8.1,2.93,12.22,12.22,0,0,1-9.65-4q-3.54-4-3.54-10.94V601.75q0-6.93,3.54-11a12.18,12.18,0,0,1,9.65-4,12,12,0,0,1,5.64,1.37,13.42,13.42,0,0,1,4.51,3.88,16.45,16.45,0,0,1,2.79,6h12a31.54,31.54,0,0,0-4.71-12.18,23.83,23.83,0,0,0-8.62-7.87,24.43,24.43,0,0,0-11.62-2.75,26.7,26.7,0,0,0-13.43,3.22,21.76,21.76,0,0,0-8.72,9.15,30.63,30.63,0,0,0-3.05,14.14v19.48a30.62,30.62,0,0,0,3.05,14.11,21.55,21.55,0,0,0,8.72,9.16,26.9,26.9,0,0,0,13.43,3.2,23.5,23.5,0,0,0,20.19-10.62,32.11,32.11,0,0,0,4.76-12.19h-12A14.73,14.73,0,0,1,263.69,633.24Z"/><path class="cls-3" d="M342,587.61a22.5,22.5,0,0,0-8.88-9.13,29.35,29.35,0,0,0-26.81,0,22.53,22.53,0,0,0-8.89,9.13,28.83,28.83,0,0,0-3.15,13.8v20.11a28.79,28.79,0,0,0,3.15,13.77,22.42,22.42,0,0,0,8.89,9.16,29.27,29.27,0,0,0,26.81,0,22.39,22.39,0,0,0,8.88-9.16,28.79,28.79,0,0,0,3.15-13.77V601.41A28.83,28.83,0,0,0,342,587.61Zm-8.86,34.26q0,6.43-3.66,10.35a14.15,14.15,0,0,1-19.51,0q-3.67-3.91-3.68-10.35v-20.8q0-6.5,3.68-10.38a14.2,14.2,0,0,1,19.51,0q3.66,3.88,3.66,10.38Z"/><path class="cls-3" d="M405.43,576V628.5L376,576h-12.7v70.95h11.33V595.18L404,646.92h12.79V576Z"/><polygon class="cls-3" points="482.58 575.96 482.58 587.14 462.85 587.14 462.85 646.95 451.23 646.95 451.23 587.14 431.5 587.14 431.5 575.96 482.58 575.96"/><path class="cls-3" d="M519.29,576H510.8l-26.66,71h12.55l4.68-13.47h27.36L533.4,647H546Zm-14,46.34,9.8-28.23,9.8,28.23Z"/><path class="cls-3" d="M587.65,633.24a12.39,12.39,0,0,1-8.11,2.93,12.2,12.2,0,0,1-9.64-4q-3.54-4-3.54-10.94V601.75q0-6.93,3.54-11a12.16,12.16,0,0,1,9.64-4,12,12,0,0,1,5.64,1.37A13.45,13.45,0,0,1,589.7,592a16.28,16.28,0,0,1,2.78,6h12a31.23,31.23,0,0,0-4.71-12.18,23.75,23.75,0,0,0-8.62-7.87,24.4,24.4,0,0,0-11.62-2.75,26.66,26.66,0,0,0-13.42,3.22,21.7,21.7,0,0,0-8.72,9.15,30.51,30.51,0,0,0-3,14.14v19.48a30.49,30.49,0,0,0,3,14.11,21.5,21.5,0,0,0,8.72,9.16,26.87,26.87,0,0,0,13.42,3.2,24.16,24.16,0,0,0,11.6-2.76,23.89,23.89,0,0,0,8.59-7.86,31.79,31.79,0,0,0,4.76-12.19h-12A14.72,14.72,0,0,1,587.65,633.24Z"/><polygon class="cls-3" points="662.99 575.96 662.99 587.14 643.26 587.14 643.26 646.95 631.64 646.95 631.64 587.14 611.91 587.14 611.91 575.96 662.99 575.96"/><path class="cls-3" d="M720.09,587.61a22.53,22.53,0,0,0-8.89-9.13,29.35,29.35,0,0,0-26.81,0,22.5,22.5,0,0,0-8.88,9.13,28.83,28.83,0,0,0-3.15,13.8v20.11a28.79,28.79,0,0,0,3.15,13.77,22.39,22.39,0,0,0,8.88,9.16,29.27,29.27,0,0,0,26.81,0,22.42,22.42,0,0,0,8.89-9.16,28.79,28.79,0,0,0,3.15-13.77V601.41A28.83,28.83,0,0,0,720.09,587.61Zm-8.87,34.26q0,6.43-3.66,10.35a14.14,14.14,0,0,1-19.5,0q-3.69-3.91-3.69-10.35v-20.8q0-6.5,3.69-10.38a14.19,14.19,0,0,1,19.5,0q3.66,3.88,3.66,10.38Z"/><path class="cls-1" d="M1406.93,422.55l-6,8.13a1142.64,1142.64,0,0,0-137.59-107.74l-.38-.26q-24.49-16.33-49.91-31.57-4.3-2.58-8.63-5.12h0q-23.51-13.85-47.77-26.72c-83-44-172.42-79.71-267.17-106.46a1488.2,1488.2,0,0,0-245.19-47.2,1571.32,1571.32,0,0,0-335,.19,1489,1489,0,0,0-243.44,47c-108,30.48-209.07,72.55-301.56,125.42l-36.16,21.5Q-290,310.91-307.6,322.68a1144.57,1144.57,0,0,0-139,108.92l-5.94-8.12A1153.36,1153.36,0,0,1-313.15,314.36q17.44-11.64,35.37-22.72l36.14-21.52C-148.18,216.58-46,174,63.15,143.2A1496.62,1496.62,0,0,1,309.3,95.75V30.27h335V95.56a1497.85,1497.85,0,0,1,247.9,47.63c97.91,27.63,190.2,64.72,275.61,110.7q21.59,11.61,42.56,24,4.33,2.53,8.63,5.13,25.21,15.14,49.53,31.35l4.48,3A1153.2,1153.2,0,0,1,1406.93,422.55Z"/><polygon class="cls-2" points="133.54 810.1 124.45 814.62 -256.68 293.57 -271.15 300.72 -278.46 290.72 -242.5 268.94 -234.99 279.22 -247.94 288.59 133.54 810.1"/><path class="cls-1" d="M133.54,810.1q-4.57,2.22-9.09,4.52L-449.28,30.28h12.39Z"/></svg>