<svg id="Capa_1" data-name="Capa 1" xmlns="http://www.w3.org/2000/svg" viewBox="0 0 48.87 48.87"><defs><style>.cls-1{fill:#444e80;}</style></defs><path class="cls-1" d="M46.73,35.38v8.19a3,3,0,0,1-.91,2.23,3.17,3.17,0,0,1-2.27.92A33.17,33.17,0,0,1,28.63,43,49.44,49.44,0,0,1,15.4,33.49,49.93,49.93,0,0,1,5.83,20.22,33.31,33.31,0,0,1,2.14,5.3a3.19,3.19,0,0,1,.91-2.23,3.12,3.12,0,0,1,2.27-.92h8.49a2.68,2.68,0,0,1,1.76.68,3.1,3.1,0,0,1,.95,1.79l1.66,7.65a6.14,6.14,0,0,1,0,1.73,2.92,2.92,0,0,1-.74,1.38l-3.69,3.69.34.64a45,45,0,0,0,7,8.94,38.27,38.27,0,0,0,8.79,6.53l.48.23,3.38-3.48a3.41,3.41,0,0,1,1.56-1.05,3.2,3.2,0,0,1,1.79-.1l7.24,1.56a3.12,3.12,0,0,1,1.76,1A3.06,3.06,0,0,1,46.73,35.38Z"/></svg>