<svg id="Capa_1" data-name="Capa 1" xmlns="http://www.w3.org/2000/svg" viewBox="0 0 236.29 61.92"><defs><style>.cls-1{fill:#454c80;}.cls-2{fill:none;stroke:#454c80;stroke-miterlimit:10;stroke-width:3px;}</style></defs><path class="cls-1" d="M23.62,31.47H6.26A4.55,4.55,0,0,0,1.71,36V53.38a4.55,4.55,0,0,0,4.55,4.55H23.62a1.14,1.14,0,0,0,.26,0V31.48ZM20.39,46.08H12.83l3.08,3.08a1.38,1.38,0,0,1-2,2L8.52,45.67a1.36,1.36,0,0,1-.41-1,1.44,1.44,0,0,1,.23-.76h0s0,0,0,0a0,0,0,0,0,0,0l0,0h0l0,0s0,0,0,0l0,0,0,0L14,38.28a1.39,1.39,0,0,1,2,0,1.36,1.36,0,0,1,.4,1,1.39,1.39,0,0,1-.4,1l-3.08,3.07h7.56a1.39,1.39,0,1,1,0,2.77Z"/><path class="cls-1" d="M48.55,31.46H31.19A4.56,4.56,0,0,0,26.64,36V53.38a4.55,4.55,0,0,0,4.55,4.55H48.55a4.55,4.55,0,0,0,4.55-4.55V36A4.55,4.55,0,0,0,48.55,31.46ZM46.29,45.69l-5.44,5.43a1.37,1.37,0,0,1-1,.41,1.42,1.42,0,0,1-.76-.23h0l0,0h0l0,0h0l0,0,0,0,0,0,0,0-5.44-5.43a1.39,1.39,0,0,1,0-2,1.39,1.39,0,0,1,1.95,0l3.08,3.08V39.24a1.38,1.38,0,1,1,2.76,0v7.57l3.09-3.08a1.38,1.38,0,1,1,1.95,2Z"/><path class="cls-1" d="M48.55,6.53H31.2a4.56,4.56,0,0,0-4.56,4.55V28.44a2,2,0,0,0,0,.25H53.09a1,1,0,0,0,0-.25V11.08A4.56,4.56,0,0,0,48.55,6.53Zm-2.26,14.2a1.39,1.39,0,0,1-1.95,0l-3.09-3.08v7.56a1.38,1.38,0,1,1-2.76,0V17.65l-3.08,3.08a1.38,1.38,0,0,1-1.95,0,1.36,1.36,0,0,1,0-1.95l5.43-5.44a1.39,1.39,0,0,1,1-.41,1.42,1.42,0,0,1,.77.23l0,0h0l0,0,0,0,0,0,0,0,0,0,5.47,5.46A1.38,1.38,0,0,1,46.29,20.73Z"/><path class="cls-1" d="M73.48,31.47H55.87V57.91a1.06,1.06,0,0,0,.25,0H73.48A4.55,4.55,0,0,0,78,53.38V36A4.54,4.54,0,0,0,73.48,31.47Zm-2.08,14s0,0,0,0h0l0,0h0a.05.05,0,0,0,0,0h0l0,0,0,0-5.44,5.44a1.38,1.38,0,0,1-2,0,1.36,1.36,0,0,1,0-2l3.08-3.08H59.35a1.39,1.39,0,0,1,0-2.77h7.57l-3.08-3.07a1.38,1.38,0,1,1,2-2l5.44,5.43a1.38,1.38,0,0,1,.4,1A1.34,1.34,0,0,1,71.4,45.46Z"/><path class="cls-1" d="M132.94,20.63h3.54a2,2,0,0,1,2,2V35.11a2,2,0,0,1-2,2h-3.54a2,2,0,0,1-2-2V22.63A2,2,0,0,1,132.94,20.63Z"/><path class="cls-1" d="M161.48,28.23l-.66,26.58a4.71,4.71,0,0,1-4.7,4.59H113.31a4.7,4.7,0,0,1-4.7-4.59L108,28.23A22.37,22.37,0,0,1,130.32,5.86h2.39V16.64a6,6,0,0,0-5.77,6V35.11a6,6,0,0,0,6,6h3.54a6,6,0,0,0,6-6V22.63a6,6,0,0,0-5.77-6V5.86h2.4A22.38,22.38,0,0,1,161.48,28.23Z"/><path class="cls-1" d="M214.2,1A20.17,20.17,0,0,0,200.46,36a7.23,7.23,0,0,1,3.57-2.2A16.17,16.17,0,1,1,228.34,29l3.87,1.25A20.17,20.17,0,0,0,214.2,1Z"/><path class="cls-1" d="M234.57,37.64V51.47A6.37,6.37,0,0,1,234,54l-1.38,3.12a6.32,6.32,0,0,1-5.78,3.77h-9.72a6.32,6.32,0,0,1-4.46-1.85l-1-1a6.3,6.3,0,0,1-1.16-1.6L203.16,42a2.94,2.94,0,0,1,.51-3.49h0a2.94,2.94,0,0,1,4.39.28L211,43.23l.41-20.14a2.94,2.94,0,0,1,2.93-2.88h0a2.94,2.94,0,0,1,2.93,2.88L217.54,36l1.23.39V30.4l4.45,1.44v5.94l1.23.4v-6l4.45,1.44v5.95l1.22.4v-6l2.42.79A2.93,2.93,0,0,1,234.57,37.64Z"/><line class="cls-2" x1="92.99" y1="23.19" x2="92.99" y2="44.7"/><line class="cls-2" x1="176.82" y1="23.19" x2="176.82" y2="44.7"/></svg>