<svg id="Capa_1" data-name="Capa 1" xmlns="http://www.w3.org/2000/svg" viewBox="0 0 1213.36 1070.3"><defs><style>.cls-1{fill:#fff;}.cls-2{fill:#ecedf2;}.cls-3{fill:#454c80;}</style></defs><path class="cls-1" d="M29.43,67q-3.73.45-7.43,1C24.47,67.64,26.94,67.3,29.43,67Z"/><path class="cls-1" d="M1130.22,418.11l-.71-.71h0Z"/><path class="cls-1" d="M1135,438c-1.84-2.06-3.7-4.11-5.58-6.12C1131.28,433.86,1133.14,435.91,1135,438Z"/><path class="cls-1" d="M1137.75,425.94c-1.79-1.93-3.61-3.83-5.45-5.72C1134.15,422.11,1136,424,1137.75,425.94Z"/><path class="cls-1" d="M1145.63,434.73q-3.86-4.46-7.88-8.79Q1141.79,430.28,1145.63,434.73Z"/><path class="cls-1" d="M1150.68,440.73q-2.49-3-5-6C1147.34,436.71,1149,438.71,1150.68,440.73Z"/><path class="cls-1" d="M1172.51,490.42q-2.28-4-4.69-8Q1170.24,486.39,1172.51,490.42Z"/><path class="cls-2" d="M232.78,146.16q-3.74.45-7.43,1C227.82,146.79,230.29,146.45,232.78,146.16Z"/><path class="cls-2" d="M255.42,144.64q-5.71.11-11.38.48Q249.71,144.73,255.42,144.64Z"/><path class="cls-2" d="M1129.52,417.4h0l.71.71Zm-.13,14.45c1.88,2,3.74,4.06,5.58,6.12C1133.14,435.91,1131.28,433.86,1129.39,431.85Zm2.91-11.63c1.84,1.89,3.66,3.79,5.45,5.72C1136,424,1134.15,422.11,1132.3,420.22Zm5.45,5.72q4,4.33,7.88,8.79Q1141.79,430.28,1137.75,425.94Zm7.88,8.79q2.56,3,5,6C1149,438.71,1147.34,436.71,1145.63,434.73Zm22.19,47.71q2.4,3.94,4.69,8Q1170.23,486.39,1167.82,482.44Z"/><path class="cls-2" d="M169.68,163.63c-2,.93-4.07,1.89-6.07,2.88Q166.63,165,169.68,163.63Z"/><path class="cls-1" d="M1082.81,891.63v152.16H905.52V948.17a305,305,0,0,0,167.24-49.7v-414H878.14c-3.5,15.18-9.81,38-13.87,53.23-29.35,0-807.46-.12-808.39.22A255.6,255.6,0,0,1-38.6,520.2C-129.87,484.76-189.86,395.1-193,297.45h-.16V24.35H508.54c39.82,72.36,61.27,152.23,64.63,235.75H435.83v-16H404.42v16h-81.1c-.79-3.5-2.42-10.76-3.21-14.3H281.8c-.89,4-10.68,47.49-11.86,52.73h-3.22c-5,107.13-85.35,192.53-192.48,200.66C-47.83,509.7-149.75,420-155,297.45c34.22,1.34,141.69,1.11,177.57,1.07,1.49,8.89,6.13,17.29,13.71,21.62,5.07,3,11.52,4.56,19.17,4.56H240.9V298.52h25.81c9.93-137-96.24-245.86-233.83-231.89C-85.37,78.71-162.87,180.14-155,297.45h-28c3.19,93.64,60.53,179.45,148.08,213.45C-.12,525,36.56,529,74.39,527.91v-.2H856.6c4.53-16.81,9.82-36.31,13.59-53.23h212.57V891.66Z"/><path class="cls-1" d="M1135,438c-1.84-2.06-3.7-4.11-5.58-6.12C1131.28,433.86,1133.14,435.91,1135,438Z"/><path class="cls-1" d="M1172.51,490.42q-2.28-4-4.69-8Q1170.24,486.39,1172.51,490.42Z"/><path class="cls-1" d="M1130.22,418.11l-.71-.71h0Z"/><path class="cls-1" d="M1137.75,425.94c-1.79-1.93-3.61-3.83-5.45-5.72C1134.15,422.11,1136,424,1137.75,425.94Z"/><path class="cls-1" d="M1145.63,434.73q-3.86-4.46-7.88-8.79Q1141.79,430.28,1145.63,434.73Z"/><path class="cls-1" d="M1150.68,440.73q-2.49-3-5-6C1147.34,436.71,1149,438.71,1150.68,440.73Z"/><path class="cls-1" d="M1402.3,641.39c1.08,157.33-77.71,310.83-205.37,402.4h-98.12V879.44c71.26-57.56,113.9-146.31,113.48-238.05.29-74.44-27.8-148-77.32-203.42-50.72-57.54-124.29-95.62-202.42-102.16-18.44-2.06-54-.87-72.75-1.19a830,830,0,0,1-26.74,165.31H529c5.79-13.06,10.91-26.52,15.7-40l.83-2.63c21.1-62.06,30.39-130.32,27.65-197.16h15v64.6h250.6v-.08c16.75.2,72.92-.59,88.55.74a314.58,314.58,0,0,1,202.86,92.75c52.29,52.17,85.2,123,91,196.67q1.1,13.29,1.1,26.61Z"/><path class="cls-3" d="M41.41,311.55a17.74,17.74,0,0,1-7.62-9.66q-2.34-6.51-2.34-16.89t2.34-17.07a18.41,18.41,0,0,1,7.62-9.88q5.28-3.27,14.05-3.27t14,3.27a18.41,18.41,0,0,1,7.62,9.88q2.34,6.6,2.34,17.07,0,10.2-2.25,16.68a18.07,18.07,0,0,1-7.54,9.75q-5.28,3.27-14.21,3.27Q46.69,314.7,41.41,311.55Zm21.24-9a10.45,10.45,0,0,0,3.66-6.13,61.66,61.66,0,0,0,0-23,11.61,11.61,0,0,0-3.7-6.38A11.09,11.09,0,0,0,55.46,265a11,11,0,0,0-7.11,2.09,11.55,11.55,0,0,0-3.7,6.38A47.93,47.93,0,0,0,43.54,285a51,51,0,0,0,.94,10.89A11.36,11.36,0,0,0,48,302.28q2.6,2.21,7.45,2.21A11.88,11.88,0,0,0,62.65,302.57Z"/><path class="cls-3" d="M93.85,271.12h11.32v2.38a34.12,34.12,0,0,1,5.49-2.59,14.86,14.86,0,0,1,4.9-.81,17.14,17.14,0,0,1,5.74,1,10.66,10.66,0,0,1,4.56,3,40.09,40.09,0,0,1,7.53-3,26.87,26.87,0,0,1,7.19-1q7.92,0,11.24,4.85t3.32,15.66v23.07H143.73V291c0-3.8-.42-6.52-1.28-8.17s-2.44-2.47-4.76-2.47a24.67,24.67,0,0,0-6.56,1.2l-1.27.42c.22,3.8.34,7,.34,9.71v22H118.79V291.8a39.1,39.1,0,0,0-.47-7,5.64,5.64,0,0,0-1.79-3.44,6.2,6.2,0,0,0-4-1.07,20.12,20.12,0,0,0-6.3,1.2l-1,.33v31.84H93.85Z"/><path class="cls-3" d="M167.82,300.74c0-4.42,1.18-7.62,3.53-9.57s6.15-3.11,11.37-3.45l9.11-.68V284.4a4.67,4.67,0,0,0-1.15-3.58,5.84,5.84,0,0,0-3.88-1q-2.81,0-7.74.21c-3.29.15-6.05.3-8.26.47l-.34-7.91a66.9,66.9,0,0,1,17.36-2.47q8.18,0,11.8,3.4t3.61,10.9v17.7A6.24,6.24,0,0,0,204,305a3.36,3.36,0,0,0,2.08,1.11l-.34,8.59a33.27,33.27,0,0,1-7-.59,14.67,14.67,0,0,1-5.15-2.39,28.66,28.66,0,0,1-12.51,3Q167.82,314.7,167.82,300.74Zm22.73,3.66,1.28-.34V295l-7.75.69q-4.77.42-4.77,5.1c0,3.12,1.39,4.69,4.17,4.69A27.64,27.64,0,0,0,190.55,304.4Z"/><path class="cls-3" d="M219.49,271.12h11.32v4.51a45.43,45.43,0,0,1,13.62-5.53v11.49a114.62,114.62,0,0,0-11.83,3l-1.7.6v28.51H219.49Z"/><path class="cls-3" d="M311.08,303.21H290.82l-2.29,10.47H276.78l13-57.88h22.3l13,57.88H313.38ZM303,265.5h-4.09L293,293h15.83Z"/><path class="cls-3" d="M337.21,271.12h11.33v2.38a29.2,29.2,0,0,1,5.74-2.64,18.52,18.52,0,0,1,5.41-.76q7.83,0,11.15,5t3.32,15.49v23.07H362.75V291q0-5.86-1.4-8.25T356,280.31a20.43,20.43,0,0,0-6.39,1.2l-1,.33v31.84H337.21Z"/><path class="cls-3" d="M391.35,309.3q-3.74-5.42-3.74-16.3,0-11.92,4.21-17.41t13-5.49a59.27,59.27,0,0,1,9.62,1.19v-17.2h11.41v59.59H414.51v-1.79a33.72,33.72,0,0,1-6,2.22,21.38,21.38,0,0,1-4.94.59Q395.11,314.7,391.35,309.3Zm21.88-5.83,1.19-.26V280.82a42.79,42.79,0,0,0-7.57-.85q-4.1,0-5.88,2.9t-1.78,9.87c0,4.26.53,7.28,1.61,9.07s2.9,2.68,5.45,2.68A28.07,28.07,0,0,0,413.23,303.47Z"/><path class="cls-3" d="M441.75,271.12h11.32v4.51a45.43,45.43,0,0,1,13.62-5.53v11.49a114,114,0,0,0-11.83,3l-1.71.6v28.51h-11.4Z"/><path class="cls-3" d="M481.07,309.68q-4.43-5-4.42-16.26,0-11.75,4.64-17.53t14.43-5.79q9,0,13.66,4.81T514,289.34l-.85,7.91h-25a10.69,10.69,0,0,0,1.06,4.56,4.87,4.87,0,0,0,2.9,2.21,18.92,18.92,0,0,0,5.57.64q2.82,0,6.73-.17c2.61-.11,4.51-.23,5.7-.34l2.39-.26.17,8.43a72.38,72.38,0,0,1-17.2,2.38Q485.5,314.7,481.07,309.68Zm21.71-21.11q0-5.1-1.57-7.11t-5.58-2q-4.08,0-5.79,2.09c-1.13,1.39-1.73,3.73-1.78,7Z"/><path class="cls-3" d="M528.74,313.17l-2.72-.51.34-9.53a130.55,130.55,0,0,0,15,1.36,14.8,14.8,0,0,0,5-.68,2.66,2.66,0,0,0,.09-5,26.37,26.37,0,0,0-5.83-1.45,16.87,16.87,0,0,1-2.13-.34,33.14,33.14,0,0,1-7-1.92,9.85,9.85,0,0,1-4.43-3.66,12.43,12.43,0,0,1-1.7-7q0-7.23,4.43-10.73t12.17-3.49a82.76,82.76,0,0,1,13.53,1.62l2.81.51-.17,9.45a128.25,128.25,0,0,0-15.23-1.36,14.2,14.2,0,0,0-4.56.59,2.27,2.27,0,0,0-1.66,2.3,2.55,2.55,0,0,0,1.7,2.51,27.87,27.87,0,0,0,5.54,1.41l3,.51q6.81,1.36,9.7,4t2.89,8.64q0,7.32-4.17,10.81t-12.85,3.49A75.83,75.83,0,0,1,528.74,313.17Z"/><path class="cls-3" d="M644.6,255.8v57.88H625.27L610.8,266H610v47.67H598.2V255.8H618l14,47.67h.85V255.8Z"/><path class="cls-3" d="M666.77,312.49a11.93,11.93,0,0,1-4.38-6.81,47.39,47.39,0,0,1-1.28-12.26v-22.3h11.41v22.47a40.68,40.68,0,0,0,.42,6.85,4.63,4.63,0,0,0,1.75,3.15,7.24,7.24,0,0,0,4,.9,16.52,16.52,0,0,0,3.53-.34c1-.23,2.52-.63,4.39-1.19V271.12h11.4v42.56H686.73V311.3a31.42,31.42,0,0,1-6.08,2.68,19.26,19.26,0,0,1-5.32.72C671.69,314.7,668.84,314,666.77,312.49Z"/><path class="cls-3" d="M714,271.12h11.32v2.38a29.52,29.52,0,0,1,5.75-2.64,18.47,18.47,0,0,1,5.41-.76q7.83,0,11.15,5t3.32,15.49v23.07H739.51V291q0-5.86-1.4-8.25c-.94-1.59-2.71-2.39-5.33-2.39a20.32,20.32,0,0,0-6.38,1.2l-1,.33v31.84H714Zm18.39-8.77a19.64,19.64,0,0,0-5-1.53,11.26,11.26,0,0,0-5.62,2l-1.11.68-2.47-6.39a17.94,17.94,0,0,1,4.39-3.57A9.2,9.2,0,0,1,727,252a18.15,18.15,0,0,1,5.87,1.53,21.57,21.57,0,0,0,4.94,1.53q2.13,0,5.62-2.13l1.19-.76,2.47,6.47A18.19,18.19,0,0,1,743,262.1a8.93,8.93,0,0,1-4.81,1.78A18.84,18.84,0,0,1,732.36,262.35Z"/><path class="cls-3" d="M768.71,309.68q-4.43-5-4.43-16.26,0-11.75,4.64-17.53t14.43-5.79q9,0,13.66,4.81t4.64,14.43l-.85,7.91h-25a10.68,10.68,0,0,0,1.07,4.56,4.85,4.85,0,0,0,2.89,2.21,19,19,0,0,0,5.58.64q2.81,0,6.72-.17c2.61-.11,4.51-.23,5.7-.34l2.39-.26.17,8.43a72.38,72.38,0,0,1-17.2,2.38Q773.13,314.7,768.71,309.68Zm21.7-21.11q0-5.1-1.57-7.11t-5.58-2q-4.08,0-5.79,2.09c-1.13,1.39-1.73,3.73-1.78,7Z"/><path class="cls-3" d="M813.4,303.47l17.87-22.14H813.4V271.12H845v10.21L827.1,303.47H845v10.21H813.4Z"/><path class="cls-3" d="M913.76,303.21H893.5l-2.3,10.47H879.45l13-57.88h22.3l13,57.88H916.06Zm-8.09-37.71h-4.09L895.71,293h15.83Z"/><path class="cls-3" d="M942.15,330.58a9.15,9.15,0,0,1-5.07-8.73,10.45,10.45,0,0,1,1.49-5.57,20.36,20.36,0,0,1,4.64-5,6.76,6.76,0,0,1-2.34-2.64,7.51,7.51,0,0,1-.81-3.41,6.08,6.08,0,0,1,.64-2.63,51.66,51.66,0,0,1,2.68-4.6q-5.79-4.26-5.79-12.43,0-7.74,4.73-11.53t13.15-3.79a40.88,40.88,0,0,1,8.6,1.11l13.7-.43v9.11l-6.38-.51a14,14,0,0,1,1.49,3.06,12.87,12.87,0,0,1,.38,3.49q0,7.66-4.34,10.94c-2.9,2.18-7.29,3.28-13.2,3.28a17.52,17.52,0,0,1-3.91-.34,9.3,9.3,0,0,0-.85,3.49,2,2,0,0,0,1.74,2.17,40.44,40.44,0,0,0,6.51.47,57.15,57.15,0,0,1,10.43,1,10.35,10.35,0,0,1,6,3.44c1.42,1.74,2.13,4.27,2.13,7.62q0,7.76-5.28,11.41t-16.17,3.66Q947.21,333.26,942.15,330.58Zm22-7.79a3.6,3.6,0,0,0,2.17-3.4,2.51,2.51,0,0,0-1.58-2.69,12.36,12.36,0,0,0-3.66-.63Q959,316,958.28,316l-7.66-.6a6.62,6.62,0,0,0-2.3,4.6,3.11,3.11,0,0,0,2.17,3,17.63,17.63,0,0,0,6.6.94Q961.94,323.9,964.11,322.79ZM962,285.34q0-6.22-6.47-6.22T949,285.34q0,6.3,6.55,6.3T962,285.34Z"/><path class="cls-3" d="M995.26,312.49a11.93,11.93,0,0,1-4.38-6.81,47.39,47.39,0,0,1-1.28-12.26v-22.3H1001v22.47a39.41,39.41,0,0,0,.43,6.85,4.58,4.58,0,0,0,1.74,3.15,7.26,7.26,0,0,0,4,.9,16.62,16.62,0,0,0,3.54-.34c1-.23,2.51-.63,4.38-1.19V271.12h11.41v42.56h-11.32V311.3a31.73,31.73,0,0,1-6.09,2.68,19.26,19.26,0,0,1-5.32.72C1000.19,314.7,997.33,314,995.26,312.49Z"/><path class="cls-3" d="M1042.46,254.18h11.41v11.49h-11.41Zm0,16.94h11.41v42.56h-11.41Z"/><path class="cls-3" d="M1069.79,271.12h11.32v4.51a45.43,45.43,0,0,1,13.62-5.53v11.49a114,114,0,0,0-11.83,3l-1.7.6v28.51h-11.41Z"/><path class="cls-3" d="M1106.82,271.12h11.32v4.51a45.43,45.43,0,0,1,13.62-5.53v11.49a114,114,0,0,0-11.83,3l-1.7.6v28.51h-11.41Z"/><path class="cls-3" d="M1146.15,309.68q-4.44-5-4.43-16.26,0-11.75,4.64-17.53t14.43-5.79q9,0,13.66,4.81t4.64,14.43l-.85,7.91h-25a10.69,10.69,0,0,0,1.06,4.56,4.87,4.87,0,0,0,2.9,2.21,18.92,18.92,0,0,0,5.57.64q2.82,0,6.73-.17c2.61-.11,4.51-.23,5.7-.34l2.39-.26.17,8.43a72.38,72.38,0,0,1-17.2,2.38Q1150.57,314.7,1146.15,309.68Zm21.7-21.11q0-5.1-1.57-7.11t-5.58-2q-4.08,0-5.79,2.09c-1.13,1.39-1.73,3.73-1.78,7Z"/></svg>