<svg id="Capa_1" data-name="Capa 1" xmlns="http://www.w3.org/2000/svg" viewBox="0 0 1213.36 1592.04"><defs><style>.cls-1{fill:#fff;}.cls-2{fill:#ecedf2;}.cls-3{fill:#454c80;}</style></defs><path class="cls-1" d="M29.43,348.34c-2.49.3-5,.63-7.43,1C24.47,349,26.94,348.64,29.43,348.34Z"/><path class="cls-1" d="M1130.22,699.45l-.71-.71h0Z"/><path class="cls-1" d="M1135,719.34c-1.84-2.06-3.7-4.11-5.58-6.12C1131.28,715.2,1133.14,717.25,1135,719.34Z"/><path class="cls-1" d="M1137.75,707.28c-1.79-1.93-3.61-3.83-5.45-5.72C1134.15,703.45,1136,705.34,1137.75,707.28Z"/><path class="cls-1" d="M1145.63,716.07q-3.86-4.46-7.88-8.79Q1141.79,711.62,1145.63,716.07Z"/><path class="cls-1" d="M1150.68,722.07l-5-6C1147.34,718.05,1149,720.05,1150.68,722.07Z"/><path class="cls-1" d="M1172.51,771.76q-2.28-4-4.69-8Q1170.24,767.73,1172.51,771.76Z"/><path class="cls-2" d="M232.78,427.5q-3.74.45-7.43,1C227.82,428.13,230.29,427.79,232.78,427.5Z"/><path class="cls-2" d="M255.42,426q-5.71.11-11.38.48Q249.71,426.07,255.42,426Z"/><path class="cls-2" d="M1129.52,698.74h0l.71.71Zm-.13,14.45c1.88,2,3.74,4.06,5.58,6.12C1133.14,717.25,1131.28,715.2,1129.39,713.19Zm2.91-11.63c1.84,1.89,3.66,3.79,5.45,5.72C1136,705.34,1134.15,703.45,1132.3,701.56Zm5.45,5.72q4,4.34,7.88,8.79Q1141.79,711.62,1137.75,707.28Zm7.88,8.79c1.71,2,3.37,4,5,6C1149,720.05,1147.34,718.05,1145.63,716.07Zm22.19,47.71q2.4,3.94,4.69,8Q1170.23,767.73,1167.82,763.78Z"/><path class="cls-2" d="M169.68,445c-2,.93-4.07,1.89-6.07,2.88C165.62,446.84,167.65,445.88,169.68,445Z"/><path class="cls-1" d="M1135,719.34c-1.84-2.06-3.7-4.11-5.58-6.12C1131.28,715.2,1133.14,717.25,1135,719.34Z"/><path class="cls-1" d="M1172.51,771.76q-2.28-4-4.69-8Q1170.24,767.73,1172.51,771.76Z"/><path class="cls-1" d="M1130.22,699.45l-.71-.71h0Z"/><path class="cls-1" d="M1137.75,707.28c-1.79-1.93-3.61-3.83-5.45-5.72C1134.15,703.45,1136,705.34,1137.75,707.28Z"/><path class="cls-1" d="M1145.63,716.07q-3.86-4.46-7.88-8.79Q1141.79,711.62,1145.63,716.07Z"/><path class="cls-1" d="M1150.68,722.07l-5-6C1147.34,718.05,1149,720.05,1150.68,722.07Z"/><path class="cls-1" d="M1402.3,922.73c1.08,157.33-77.71,310.83-205.37,402.4h-.13a504.78,504.78,0,0,1-98,55.18V1160.78c71.26-57.56,113.9-146.31,113.48-238,.29-74.44-27.8-148-77.32-203.42-50.72-57.54-124.29-95.62-202.42-102.16-18.44-2.06-54-.87-72.75-1.19a830.46,830.46,0,0,1-26.74,165.31H529c5.79-13.06,10.91-26.52,15.7-40l.83-2.63c21.1-62.06,30.39-130.32,27.65-197.16h15v64.6h250.6V606c16.75.2,72.92-.59,88.55.74a314.56,314.56,0,0,1,202.86,92.75c52.29,52.17,85.2,123,91,196.67q1.1,13.29,1.1,26.61Z"/><path class="cls-3" d="M41.41,592.89a17.75,17.75,0,0,1-7.62-9.66q-2.34-6.51-2.34-16.89t2.34-17.07a18.42,18.42,0,0,1,7.62-9.88q5.28-3.27,14.05-3.27t14,3.27a18.42,18.42,0,0,1,7.62,9.88q2.34,6.6,2.34,17.07,0,10.2-2.25,16.68a18.07,18.07,0,0,1-7.54,9.75Q64.35,596,55.42,596,46.69,596,41.41,592.89Zm21.24-9a10.44,10.44,0,0,0,3.66-6.13,61.77,61.77,0,0,0,0-23,11.67,11.67,0,0,0-3.7-6.38,11.12,11.12,0,0,0-7.15-2,11,11,0,0,0-7.11,2.09,11.55,11.55,0,0,0-3.7,6.38,48,48,0,0,0-1.11,11.53,51.06,51.06,0,0,0,.94,10.89A11.37,11.37,0,0,0,48,583.62c1.73,1.47,4.22,2.21,7.45,2.21a11.84,11.84,0,0,0,7.2-1.92Z"/><path class="cls-3" d="M93.85,552.46h11.32v2.38a34.82,34.82,0,0,1,5.49-2.59,14.86,14.86,0,0,1,4.9-.81,17,17,0,0,1,5.74,1,10.68,10.68,0,0,1,4.56,3,40.08,40.08,0,0,1,7.53-3,26.89,26.89,0,0,1,7.19-1q7.92,0,11.24,4.85T155.14,572V595H143.73V572.34c0-3.8-.42-6.52-1.28-8.17s-2.44-2.47-4.76-2.47a24.81,24.81,0,0,0-6.56,1.2l-1.27.42c.22,3.8.34,7,.34,9.71v22H118.79V573.14a39,39,0,0,0-.47-7,5.66,5.66,0,0,0-1.79-3.44,6.23,6.23,0,0,0-4-1.07,20.22,20.22,0,0,0-6.3,1.2l-1,.33V595H93.85Z"/><path class="cls-3" d="M167.82,582.08c0-4.42,1.18-7.62,3.53-9.57s6.15-3.11,11.37-3.45l9.11-.68v-2.64a4.65,4.65,0,0,0-1.15-3.58,5.86,5.86,0,0,0-3.88-1q-2.81,0-7.74.21c-3.29.15-6.05.3-8.26.47l-.34-7.91a67,67,0,0,1,17.36-2.47q8.18,0,11.8,3.4t3.61,10.9v17.7a6.17,6.17,0,0,0,.77,2.88,3.39,3.39,0,0,0,2.08,1.11l-.34,8.59a33.55,33.55,0,0,1-7-.59,14.61,14.61,0,0,1-5.15-2.39,28.62,28.62,0,0,1-12.51,3Q167.82,596,167.82,582.08Zm22.73,3.66,1.28-.34v-9.06l-7.75.69q-4.77.42-4.77,5.1c0,3.12,1.39,4.69,4.17,4.69A27.33,27.33,0,0,0,190.55,585.74Z"/><path class="cls-3" d="M219.49,552.46h11.32V557a45.4,45.4,0,0,1,13.62-5.53v11.49a115.09,115.09,0,0,0-11.83,3l-1.7.6V595H219.49Z"/><path class="cls-3" d="M311.08,584.55H290.82L288.53,595H276.78l13-57.88h22.3l13,57.88h-11.7ZM303,546.84h-4.09L293,574.34h15.83Z"/><path class="cls-3" d="M337.21,552.46h11.33v2.38a29.53,29.53,0,0,1,5.74-2.64,18.37,18.37,0,0,1,5.41-.76q7.83,0,11.15,5t3.32,15.49V595H362.75V572.34q0-5.87-1.4-8.25c-.93-1.59-2.72-2.41-5.35-2.44a20.48,20.48,0,0,0-6.39,1.2l-1,.33V595h-11.4Z"/><path class="cls-3" d="M391.35,590.64q-3.74-5.42-3.74-16.3,0-11.93,4.21-17.41t13-5.49a58.82,58.82,0,0,1,9.62,1.19v-17.2h11.41V595H414.51v-1.79a33.76,33.76,0,0,1-6,2.22,21.12,21.12,0,0,1-4.94.59Q395.11,596,391.35,590.64Zm21.88-5.83,1.19-.26V562.16a42.81,42.81,0,0,0-7.57-.85q-4.1,0-5.88,2.9t-1.78,9.87c0,4.26.53,7.28,1.61,9.07s2.9,2.68,5.45,2.68A27.9,27.9,0,0,0,413.23,584.81Z"/><path class="cls-3" d="M441.75,552.46h11.32V557a45.4,45.4,0,0,1,13.62-5.53v11.49a115.09,115.09,0,0,0-11.83,3l-1.71.6V595h-11.4Z"/><path class="cls-3" d="M481.07,591q-4.43-5-4.42-16.26,0-11.75,4.64-17.53t14.43-5.79q9,0,13.66,4.81T514,570.68l-.85,7.91h-25a10.59,10.59,0,0,0,1.06,4.56,4.85,4.85,0,0,0,2.9,2.21,19,19,0,0,0,5.57.64q2.82,0,6.73-.17c2.61-.11,4.51-.23,5.7-.34l2.39-.26.17,8.43a72.41,72.41,0,0,1-17.2,2.38Q485.5,596,481.07,591Zm21.71-21.11q0-5.1-1.57-7.11t-5.58-2q-4.08,0-5.79,2.09c-1.13,1.39-1.73,3.73-1.78,7Z"/><path class="cls-3" d="M528.74,594.51,526,594l.34-9.53a130,130,0,0,0,15,1.36,14.89,14.89,0,0,0,5-.68,2.66,2.66,0,0,0,.09-5,26.61,26.61,0,0,0-5.83-1.45,16.87,16.87,0,0,1-2.13-.34,33.31,33.31,0,0,1-7-1.92,9.84,9.84,0,0,1-4.43-3.66,12.36,12.36,0,0,1-1.7-7q0-7.23,4.43-10.73T542,551.56a83.17,83.17,0,0,1,13.53,1.62l2.81.51-.17,9.45a127.45,127.45,0,0,0-15.23-1.36,14.37,14.37,0,0,0-4.56.59,2.27,2.27,0,0,0-1.66,2.3,2.54,2.54,0,0,0,1.7,2.51,27.8,27.8,0,0,0,5.54,1.41l3,.51q6.81,1.36,9.7,4t2.89,8.64q0,7.32-4.17,10.81T542.49,596A75.68,75.68,0,0,1,528.74,594.51Z"/><path class="cls-3" d="M644.6,537.14V595H625.27L610.8,547.34H610V595H598.2V537.14H618l14,47.67h.85V537.14Z"/><path class="cls-3" d="M666.77,593.83a11.92,11.92,0,0,1-4.38-6.81,47.24,47.24,0,0,1-1.28-12.26v-22.3h11.41v22.47a41.33,41.33,0,0,0,.42,6.85,4.64,4.64,0,0,0,1.75,3.15,7.25,7.25,0,0,0,4,.9,16.7,16.7,0,0,0,3.53-.34c1-.23,2.52-.63,4.39-1.19V552.46H698V595H686.73v-2.38a31.39,31.39,0,0,1-6.08,2.68,19.12,19.12,0,0,1-5.32.72C671.69,596,668.84,595.34,666.77,593.83Z"/><path class="cls-3" d="M714,552.46h11.32v2.38a29.61,29.61,0,0,1,5.75-2.64,18.37,18.37,0,0,1,5.41-.76q7.83,0,11.15,5T751,571.93V595H739.51V572.34q0-5.87-1.4-8.25c-.94-1.59-2.71-2.39-5.33-2.39a20.42,20.42,0,0,0-6.38,1.2l-1,.33v31.84H714Zm18.39-8.77a19.83,19.83,0,0,0-5-1.53,11.26,11.26,0,0,0-5.62,2l-1.11.68-2.47-6.39a18.19,18.19,0,0,1,4.39-3.57,9.14,9.14,0,0,1,4.42-1.54,18.13,18.13,0,0,1,5.87,1.53,21.43,21.43,0,0,0,4.94,1.53q2.13,0,5.62-2.13l1.19-.76,2.47,6.47a18.06,18.06,0,0,1-4.09,3.46,8.93,8.93,0,0,1-4.81,1.78,18.75,18.75,0,0,1-5.83-1.53Z"/><path class="cls-3" d="M768.71,591q-4.43-5-4.43-16.26,0-11.75,4.64-17.53t14.43-5.79q9,0,13.66,4.81t4.64,14.43l-.85,7.91h-25a10.6,10.6,0,0,0,1.07,4.56,4.86,4.86,0,0,0,2.89,2.21,19.11,19.11,0,0,0,5.58.64q2.8,0,6.72-.17c2.61-.11,4.51-.23,5.7-.34l2.39-.26.17,8.43a72.41,72.41,0,0,1-17.2,2.38Q773.13,596,768.71,591Zm21.7-21.11q0-5.1-1.57-7.11t-5.58-2q-4.08,0-5.79,2.09c-1.13,1.39-1.73,3.73-1.78,7Z"/><path class="cls-3" d="M813.4,584.81l17.87-22.14H813.4V552.46H845v10.21l-17.9,22.14H845V595H813.4Z"/><path class="cls-3" d="M913.76,584.55H893.5L891.2,595H879.45l13-57.88h22.3l13,57.88H916.06Zm-8.09-37.71h-4.09l-5.87,27.5h15.83Z"/><path class="cls-3" d="M942.15,611.92a9.16,9.16,0,0,1-5.07-8.73,10.4,10.4,0,0,1,1.49-5.57,20.07,20.07,0,0,1,4.64-5,6.77,6.77,0,0,1-2.34-2.64,7.48,7.48,0,0,1-.81-3.41,6,6,0,0,1,.64-2.63,51.5,51.5,0,0,1,2.68-4.6q-5.79-4.26-5.79-12.43,0-7.74,4.73-11.53t13.15-3.79a40.86,40.86,0,0,1,8.6,1.11l13.7-.43v9.11l-6.38-.51a14,14,0,0,1,1.49,3.06,12.84,12.84,0,0,1,.38,3.49q0,7.67-4.34,10.94c-2.9,2.18-7.29,3.28-13.2,3.28a17.72,17.72,0,0,1-3.91-.34,9.18,9.18,0,0,0-.85,3.49A2,2,0,0,0,952.7,587a40.49,40.49,0,0,0,6.51.47,57.05,57.05,0,0,1,10.43,1,10.38,10.38,0,0,1,6,3.44c1.42,1.74,2.13,4.27,2.13,7.62q0,7.75-5.28,11.41t-16.17,3.66Q947.21,614.61,942.15,611.92Zm22-7.79a3.6,3.6,0,0,0,2.17-3.4,2.51,2.51,0,0,0-1.58-2.69,12.34,12.34,0,0,0-3.66-.63c-1.39,0-2.32-.07-2.8-.07l-7.66-.6a6.62,6.62,0,0,0-2.3,4.6,3.11,3.11,0,0,0,2.17,3,17.62,17.62,0,0,0,6.6.94q4.85,0,7-1.15ZM962,566.68q0-6.23-6.47-6.22T949,566.68q0,6.3,6.55,6.3T962,566.68Z"/><path class="cls-3" d="M995.26,593.83a11.92,11.92,0,0,1-4.38-6.81,47.24,47.24,0,0,1-1.28-12.26v-22.3H1001v22.47a39.29,39.29,0,0,0,.43,6.85,4.59,4.59,0,0,0,1.74,3.15,7.25,7.25,0,0,0,4,.9,16.79,16.79,0,0,0,3.54-.34c1-.23,2.51-.63,4.38-1.19V552.46h11.41V595h-11.32v-2.38a32.1,32.1,0,0,1-6.09,2.68,19.12,19.12,0,0,1-5.32.72C1000.19,596,997.33,595.34,995.26,593.83Z"/><path class="cls-3" d="M1042.46,535.52h11.41V547h-11.41Zm0,16.94h11.41V595h-11.41Z"/><path class="cls-3" d="M1069.79,552.46h11.32V557a45.4,45.4,0,0,1,13.62-5.53v11.49a115.09,115.09,0,0,0-11.83,3l-1.7.6V595h-11.41Z"/><path class="cls-3" d="M1106.82,552.46h11.32V557a45.4,45.4,0,0,1,13.62-5.53v11.49a115.09,115.09,0,0,0-11.83,3l-1.7.6V595h-11.41Z"/><path class="cls-3" d="M1146.15,591q-4.44-5-4.43-16.26,0-11.75,4.64-17.53t14.43-5.79q9,0,13.66,4.81t4.64,14.43l-.85,7.91h-25a10.59,10.59,0,0,0,1.06,4.56,4.85,4.85,0,0,0,2.9,2.21,19,19,0,0,0,5.57.64q2.82,0,6.73-.17c2.61-.11,4.51-.23,5.7-.34l2.39-.26.17,8.43a72.41,72.41,0,0,1-17.2,2.38Q1150.57,596,1146.15,591Zm21.7-21.11q0-5.1-1.57-7.11t-5.58-2q-4.08,0-5.79,2.09c-1.13,1.39-1.73,3.73-1.78,7Z"/><path class="cls-1" d="M1082.81,1173V1494.8a485.47,485.47,0,0,1-177.31,32.74l0-176.39h0V1229.51a305,305,0,0,0,167.24-49.7v-414H878.14c-3.5,15.18-9.81,38-13.87,53.23-29.35,0-807.46-.12-808.39.22A255.62,255.62,0,0,1-38.6,801.54C-129.87,766.1-189.86,676.44-193,578.79h-.16V305.69h701.7c39.82,72.36,61.27,152.23,64.63,235.75H435.83v-16H404.42v16h-81.1c-.79-3.5-2.42-10.76-3.21-14.3H281.8c-.89,4-10.68,47.49-11.86,52.73h-3.22C261.72,687,181.37,772.4,74.24,780.53-47.83,791-149.75,701.34-155,578.79c34.22,1.34,141.69,1.11,177.57,1.07,1.49,8.89,6.13,17.29,13.71,21.62,5.07,3,11.52,4.56,19.17,4.56H240.9V579.86h25.81C276.64,442.86,170.47,334,32.88,348-85.37,360.05-162.87,461.48-155,578.79h-28c3.19,93.64,60.53,179.45,148.08,213.45,34.8,14.1,71.48,18.1,109.31,17v-.2H856.6c4.53-16.81,9.82-36.31,13.59-53.23h212.57V1173Z"/><path class="cls-1" d="M1402.31,278.84V925.45h-10V288.84H518.52q-2.89-5-5.9-10A505.43,505.43,0,0,0,352.53,114.59l-3.89-2.46c-80.63-50.4-174.44-77-271.27-77H-183.16V313h-10V25.08H77.37c98.71,0,194.35,27.17,276.59,78.59l3.93,2.48A515.43,515.43,0,0,1,524.27,278.84Z"/></svg>